# xmcd
#
# Track frame offsets:
#	150
#	17580
#	36935
#	55947
#	77830
#	96265
#	114345
#	134622
#	153450
#	173702
#
# Disc length: 2598 seconds
#
# Revision: 1
# Processed by: cddbd v1.5.1PL0 Copyright (c) Steve Scherf et al.
# Submitted via: CDex 1.50Beta5
#
DISCID=7c0a240a
DTITLE=Various Artist - 小山荘のきらわれ者
DYEAR=1900
DGENRE=
TTITLE0=Welcome to the boarding house KOYAMA
TTITLE1=伊東じゅん/Stand by your chance!
TTITLE2=Feelin' good
TTITLE3=石岡美紀/すみれ色のワンピース
TTITLE4=百石元/Wink!Wink!
TTITLE5=Bad boys
TTITLE6=伊東じゅん/発熱ハレーション
TTITLE7=涙の Congratulation
TTITLE8=百石元/Slow stepでキメてくれ
TTITLE9=石岡美紀/たった一つのQuestion
EXTD=
EXTT0=
EXTT1=
EXTT2=
EXTT3=
EXTT4=
EXTT5=
EXTT6=
EXTT7=
EXTT8=
EXTT9=
PLAYORDER=
